:SAMPLES-PER-SECOND 30
:FULLY-SPECIFIED
:DEGREES
1048
root  44.5891 40.5821 45.3335 174.752 2.5845 179.728
RightUpLeg  2.69765 -9.06571 -7.87355
RightLeg  6.46392 -7.16312 1.99688
RightFoot  -0.604471 -0.122552 1.25954
RightToes  5.82063e-011 0 -3.6325e-017
Spine  4.33954 1.93807 3.21867
Spine1  8.02419 3.17118 -4.03246
HEad  35.544 43.6338 4.41425
LeftShoulder1  0.217693 1.259 -1.28092
LeftArm  -19.9457 6.33922 -7.75881
LeftForeArm  25.4963 -3.89014 -1.00843
LeftHand  -0.244104 0.0205437 5.32207
RightShoulder  0.381236 -0.405592 4.40378
RightArm  -19.4874 -7.47717 1.1461
RightForeArm  -2.1621 1.92634 2.54129
RightHand  -6.038 15.3738 -33.1443
LeftUpLeg  6.82105 6.42483 3.76716
LeftLeg  4.0296 19.9037 -3.12908
LeftFoot  -4.07366 -0.0039855 0.451892
LeftToes  1.45487e-011 -6.19069e-011 1.65092e-011
1049
root  44.6241 40.5904 45.4639 175.303 2.39696 179.602
RightUpLeg  1.92628 -9.12071 -7.87194
RightLeg  6.43096 -7.42492 2.07985
RightFoot  -0.401384 -0.112396 1.14422
RightToes  5.82063e-011 0 -3.6325e-017
Spine  5.84015 2.09349 3.46327
Spine1  7.31313 3.49145 -4.51556
HEad  34.6648 42.1696 3.87628
LeftShoulder1  0.397718 0.024871 -3.27408
LeftArm  -20.9535 6.67509 -8.22462
LeftForeArm  26.3303 -5.58002 -0.847959
LeftHand  -0.244104 0.0205437 5.32207
RightShoulder  0.570851 0.414204 6.96311
RightArm  -18.873 -8.40959 0.619975
RightForeArm  -2.14204 2.9926 2.80042
RightHand  -6.00348 15.5621 -32.6881
LeftUpLeg  5.97425 6.29445 3.58305
LeftLeg  3.99274 19.8954 -3.16752
LeftFoot  -3.79763 -0.0119467 0.532161
LeftToes  1.45487e-011 -6.19069e-011 1.65092e-011
1050
root  44.6609 40.5981 45.6405 176.061 2.10519 179.561
RightUpLeg  0.919306 -9.11992 -7.7468
RightLeg  6.31777 -7.87477 2.19696
RightFoot  -0.0965448 -0.112078 1.13139
RightToes  5.82063e-011 0 -3.6325e-017
Spine  7.35077 2.20376 3.66493
Spine1  6.80325 3.69653 -4.71173
HEad  33.1094 38.7279 2.7168
LeftShoulder1  0.703558 -1.46312 -6.36726
LeftArm  -21.7885 6.88865 -8.4614
LeftForeArm  26.8898 -7.68688 -0.870507
LeftHand  -0.244104 0.0205437 5.32207
RightShoulder  0.821254 1.35108 9.58882
RightArm  -18.4583 -9.30918 0.594496
RightForeArm  -2.42589 4.0807 3.02225
RightHand  -5.78259 15.0992 -32.2276
LeftUpLeg  4.74322 6.25172 3.51398
LeftLeg  4.1278 19.7101 -3.21128
LeftFoot  -3.50013 -0.0217905 0.626472
LeftToes  1.45487e-011 -6.19069e-011 1.65092e-011
1051
root  44.7022 40.6055 45.8724 176.941 1.61995 179.537
RightUpLeg  -0.293265 -9.16073 -7.60348
RightLeg  6.23759 -8.4942 2.3553
RightFoot  0.29025 -0.0947318 0.949859
RightToes  5.82063e-011 0 -3.6325e-017
Spine  9.10349 2.10093 3.8458
Spine1  6.34161 3.64632 -4.72886
HEad  31.2428 34.4823 1.16274
LeftShoulder1  1.17204 -3.00396 -10.6964
LeftArm  -22.3926 6.58263 -8.28552
LeftForeArm  27.6218 -9.57354 -0.991775
LeftHand  -0.244104 0.0205437 5.32207
RightShoulder  1.15477 2.52286 12.0866
RightArm  -18.4686 -9.95657 1.29642
RightForeArm  -1.38245 4.96518 3.05565
RightHand  -5.27717 14.1066 -30.9828
LeftUpLeg  3.24352 6.23187 3.45649
LeftLeg  4.29835 19.3823 -3.26869
LeftFoot  -3.07676 -0.0414579 0.829698
LeftToes  1.45487e-011 -6.19069e-011 1.65092e-011
1052
root  44.7342 40.6069 46.1516 177.978 0.956238 179.373
RightUpLeg  -1.82252 -9.3851 -7.64256
RightLeg  6.36485 -9.11436 2.53783
RightFoot  0.644939 -0.0607871 0.620539
RightToes  5.82063e-011 0 -3.6325e-017
Spine  11.0562 1.76481 4.17283
Spine1  5.98198 3.45551 -5.05082
HEad  29.0383 29.9321 -0.868057
LeftShoulder1  1.78455 -4.52818 -15.3718
LeftArm  -22.6319 5.48888 -8.33229
LeftForeArm  28.6104 -10.6503 -1.17619
LeftHand  -0.244104 0.0205437 5.32207
RightShoulder  1.55962 3.80931 14.4906
RightArm  -18.9395 -10.303 2.86133
RightForeArm  1.25897 5.66719 2.89754
RightHand  -4.70883 13.1645 -29.1699
LeftUpLeg  1.49209 6.06989 3.15078
LeftLeg  4.38383 19.0482 -3.30261
LeftFoot  -2.53204 -0.0691559 1.09642
LeftToes  1.45487e-011 -6.19069e-011 1.65092e-011
1053
root  44.7537 40.5934 46.4795 179.336 0.120239 179.127
RightUpLeg  -3.83695 -9.70829 -7.75173
RightLeg  6.6926 -9.83922 2.6815
RightFoot  0.957335 -0.0464365 0.4889
RightToes  5.82063e-011 0 -3.6325e-017
Spine  13.0487 1.37246 4.76616
Spine1  5.73793 3.34761 -5.79473
HEad  26.6354 24.7024 -2.71107
LeftShoulder1  2.59917 -6.47074 -19.4868
LeftArm  -22.2616 3.74147 -9.18068
LeftForeArm  29.4075 -10.733 -1.48073
LeftHand  -0.244104 0.0205437 5.32207
RightShoulder  2.00445 4.89519 17.2463
RightArm  -19.5816 -10.3581 4.80627
RightForeArm  3.66726 6.6351 2.7861
RightHand  -4.43071 12.7286 -28.1662
LeftUpLeg  -0.775572 5.83401 2.65964
LeftLeg  4.60116 18.5879 -3.25075
LeftFoot  -2.00378 -0.0882647 1.23012
LeftToes  1.45487e-011 -6.19069e-011 1.65092e-011
1054
root  44.7729 40.5598 46.8719 -179 -0.96611 178.953
RightUpLeg  -6.31229 -10.0123 -7.72546
RightLeg  7.17923 -10.9009 2.73258
RightFoot  1.2884 -0.0580416 0.617265
RightToes  5.82063e-011 0 -3.6325e-017
Spine  15.204 0.998439 5.42292
Spine1  5.50024 3.22186 -6.29334
HEad  24.0794 19.1892 -3.7716
LeftShoulder1  3.68793 -8.99373 -23.2597
LeftArm  -21.2853 1.42173 -10.5874
LeftForeArm  30.1707 -10.0115 -1.92277
LeftHand  -0.244104 0.0205437 5.32207
RightShoulder  2.46307 5.73249 20.3178
RightArm  -20.2423 -9.83115 6.71442
RightForeArm  5.04372 8.15733 2.86124
RightHand  -4.54365 12.9097 -28.5668
LeftUpLeg  -3.67016 5.78833 2.20447
LeftLeg  5.18708 17.7344 -3.09513
LeftFoot  -1.53783 -0.0975028 1.24544
LeftToes  1.45487e-011 -6.19069e-011 1.65092e-011
1055
root  44.7961 40.5052 47.3227 -177.356 -2.15605 178.817
RightUpLeg  -8.98268 -10.4712 -7.63248
RightLeg  7.959 -11.9532 2.6773
RightFoot  1.57926 -0.0565426 0.65842
RightToes  5.82063e-011 0 -3.6325e-017
Spine  17.4165 0.122919 5.4251
Spine1  6.48526 2.18342 -5.17553
HEad  20.0734 15.6556 -5.24752
LeftShoulder1  4.53378 -9.9182 -27.6757
LeftArm  -20.4307 -2.13911 -12.4566
LeftForeArm  31.5479 -9.32393 -2.41604
LeftHand  -0.244104 0.0205437 5.32207
RightShoulder  2.78574 6.82 20.6199
RightArm  -22.1511 -7.53167 11.2054
RightForeArm  6.95265 9.7178 2.78953
RightHand  -4.94932 13.6679 -29.8054
LeftUpLeg  -6.72528 6.02937 1.75954
LeftLeg  5.96176 16.5828 -2.92502
LeftFoot  -1.0509 -0.11925 1.39399
LeftToes  1.45487e-011 -6.19069e-011 1.65092e-011
1056
root  44.8237 40.4299 47.8046 -175.97 -3.06181 178.6
RightUpLeg  -11.6907 -11.3988 -7.51634
RightLeg  9.14301 -12.2221 2.4656
RightFoot  1.71997 -0.0390382 0.475301
RightToes  5.82063e-011 0 -3.6325e-017
Spine  20.4656 -0.580051 5.87622
Spine1  7.15806 1.64397 -5.00162
HEad  15.6085 12.2235 -5.40834
LeftShoulder1  5.53335 -11.6032 -30.5782
LeftArm  -19.5726 -6.36413 -15.1137
LeftForeArm  34.434 -8.1975 -2.80298
LeftHand  -0.244104 0.0205437 5.32207
RightShoulder  3.2366 7.75228 22.5014
RightArm  -23.1821 -4.30658 14.106
RightForeArm  8.63201 11.4594 2.9147
RightHand  -5.52961 14.8287 -31.2899
LeftUpLeg  -9.47926 6.43951 1.23154
LeftLeg  6.67554 15.5143 -2.8459
LeftFoot  -0.542173 -0.156687 1.69252
LeftToes  1.45487e-011 -6.19069e-011 1.65092e-011
1057
root  44.8734 40.333 48.3084 -174.653 -3.64793 178.339
RightUpLeg  -14.6067 -12.8219 -7.11315
RightLeg  10.5908 -11.6079 1.99469
RightFoot  1.75576 -0.0282196 0.347372
RightToes  5.82063e-011 0 -3.6325e-017
Spine  24.2023 -1.02905 6.04676
Spine1  7.3996 1.27951 -4.47315
HEad  10.8271 8.81348 -5.72747
LeftShoulder1  6.88108 -13.7144 -33.9021
LeftArm  -18.2556 -11.1374 -16.839
LeftForeArm  37.8478 -7.27917 -3.38267
LeftHand  -0.244104 0.0205437 5.32207
RightShoulder  3.85659 8.90529 24.9566
RightArm  -23.1419 -0.217833 15.6341
RightForeArm  10.4752 13.2821 3.17632
RightHand  -6.26914 16.2926 -32.9583
LeftUpLeg  -12.1672 7.02782 0.660739
LeftLeg  7.41471 14.4957 -2.82294
LeftFoot  -0.0757991 -0.183062 1.86173
LeftToes  1.45487e-011 -6.19069e-011 1.65092e-011
1058
root  44.9524 40.2155 48.8284 -173.222 -4.25757 178.074
RightUpLeg  -17.792 -14.437 -6.36518
RightLeg  12.123 -10.7878 1.30432
RightFoot  1.79063 -0.0323765 0.387311
RightToes  5.82063e-011 0 -3.6325e-017
Spine  28.2024 -1.1409 5.64365
Spine1  7.47733 0.79307 -2.53061
HEad  5.73967 5.56621 -6.59779
LeftShoulder1  8.69047 -15.9136 -38.5296
LeftArm  -16.4979 -16.6508 -17.0608
LeftForeArm  41.4163 -6.86078 -4.32027
LeftHand  -0.244104 0.0205437 5.32207
RightShoulder  4.54673 10.2229 27.0819
RightArm  -22.2715 4.84971 16.2604
RightForeArm  12.9731 15.0577 3.42034
RightHand  -7.10857 17.959 -34.5767
LeftUpLeg  -15.0793 7.81909 -0.0326314
LeftLeg  8.26889 13.2437 -2.7272
LeftFoot  0.371817 -0.191116 1.84161
LeftToes  1.45487e-011 -6.19069e-011 1.65092e-011
1059
root  45.0261 40.0926 49.313 -171.995 -4.81421 177.677
RightUpLeg  -20.7178 -16.1258 -5.68455
RightLeg  13.5853 -9.84683 0.706292
RightFoot  1.83549 -0.0261404 0.334704
RightToes  5.82063e-011 0 -3.6325e-017
Spine  32.3934 -1.11184 5.2243
Spine1  7.72786 0.29261 -0.109478
HEad  0.958747 1.86207 -7.60352
LeftShoulder1  10.524 -17.7688 -43.0374
LeftArm  -14.8107 -23.0384 -17.0748
LeftForeArm  45.6869 -6.90744 -5.40743
LeftHand  -0.244104 0.0205437 5.32207
RightShoulder  5.18687 11.4767 28.6337
RightArm  -20.9084 10.9077 16.5472
RightForeArm  16.0992 16.3833 3.55802
RightHand  -7.99174 19.7011 -36.0379
LeftUpLeg  -17.6235 8.53689 -0.953018
LeftLeg  8.95843 12.0667 -2.58893
LeftFoot  0.833714 -0.206164 1.88535
LeftToes  1.45487e-011 -6.19069e-011 1.65092e-011
1060
root  45.0608 39.9806 49.7064 -171.279 -4.84541 177.128
RightUpLeg  -22.9594 -18.0576 -5.19628
RightLeg  14.7939 -8.11155 0.467415
RightFoot  1.87192 -0.000413833 0.113926
RightToes  5.82063e-011 0 -3.6325e-017
Spine  36.7274 -1.62177 5.49298
Spine1  8.82776 -0.0904938 0.431171
HEad  -2.73468 -3.5314 -8.22506
LeftShoulder1  11.0855 -18.6523 -43.5127
LeftArm  -13.7878 -29.8914 -20.0619
LeftForeArm  50.9181 -7.77989 -6.00607
LeftHand  -0.244104 0.0205437 5.32207
RightShoulder  5.56315 12.447 28.8851
RightArm  -19.7267 18.1449 18.4542
RightForeArm  19.9251 16.9747 3.53624
RightHand  -9.03949 21.5292 -37.8118
LeftUpLeg  -19.2671 9.13879 -1.9322
LeftLeg  9.40723 11.351 -2.51673
LeftFoot  1.19668 -0.233509 2.05995
LeftToes  1.45487e-011 -6.19069e-011 1.65092e-011
